# xmcd
#
# Track frame offsets:
#	150
#	13222
#	25867
#	39740
#	56391
#	70897
#	76464
#	92113
#	105927
#	122663
#	145044
#	156434
#	165727
#	181599
#	196240
#	207050
#	216474
#	227479
#	241030
#	258897
#	272630
#	281199
#	299826
#	309595
#	321197
#
# Disc length: 4383 seconds
#
# Revision: 1
# Processed by: cddbd v1.5.2PL0 Copyright (c) Steve Scherf et al.
# Submitted via: audiograbber 1.83.01
#
DISCID=66111d19
DTITLE=Bob Wills and His Texas Playboys - Riding Your Way- The Lost Transcription
DTITLE=s For Tiffany Music, 1946-1947, cd 1
DYEAR=1946
DGENRE=Country
TTITLE0=Put Another Chair At The Table
TTITLE1=Make Room In Your Heart For A Friend
TTITLE2=I Cant Begin To Tell You
TTITLE3=No Letter Today
TTITLE4=The Covered Wagon Rolled Right Along
TTITLE5=Brushy Fork (instrumental)
TTITLE6=Yellow Rose Of Texas
TTITLE7=Columbus Stockade Blues (version 1)
TTITLE8=Paradise Isle (instrumental)
TTITLE9=I Wonder If You Feel The Way I Do
TTITLE10=A Year Ago Tonight
TTITLE11=Brown Skin Gal (instrumental)
TTITLE12=Ride On! (My Prairie Pinto)
TTITLE13=Travelin Blues
TTITLE14=Dear Old Southern Home
TTITLE15=Liberty (instrumental)
TTITLE16=We Might As Well Forget It
TTITLE17=Goodnight Little Sweetheart
TTITLE18=On The Alamo (instrumental)
TTITLE19=Too Late
TTITLE20=Sixteen Days In Georgia (instrumental)
TTITLE21=El Rancho Grande
TTITLE22=Under The Double Eagle (instrumental)
TTITLE23=It Makes No Difference Now
TTITLE24=Ragtime Annie (instrumental)
EXTD=
EXTT0=
EXTT1=
EXTT2=
EXTT3=
EXTT4=
EXTT5=
EXTT6=
EXTT7=
EXTT8=
EXTT9=
EXTT10=
EXTT11=
EXTT12=
EXTT13=
EXTT14=
EXTT15=
EXTT16=
EXTT17=
EXTT18=
EXTT19=
EXTT20=
EXTT21=
EXTT22=
EXTT23=
EXTT24=
PLAYORDER=
